<svg role="img" viewBox="0 0 24 24" xmlns="http://www.w3.org/2000/svg" fill="#107C10">
  <title>Xbox</title>
  <path d="M4.102 4.102C2.775 5.43 1.892 7.112 1.5 9c.213-.2 2.612-2.342 5.25-2.342 1.55 0 2.8.637 3.75 1.592C11.45 9.2 12 10.1 12 10.1s.55-.9 1.5-1.85c.95-.955 2.2-1.592 3.75-1.592C19.888 6.658 22.287 8.8 22.5 9c-.392-1.888-1.275-3.57-2.602-4.898C18.57 2.774 16.888 1.892 15 1.5c-.613.212-1.863 1.062-3 2.062C10.862 2.562 9.612 1.712 9 1.5c-1.888.392-3.57 1.274-4.898 2.602zM12 11.7s-6 6.538-6 9.3c0 0 1.462 1.5 6 1.5s6-1.5 6-1.5c0-2.762-6-9.3-6-9.3zM5.25 8.658C3.1 8.658 1.5 11 1.5 12c0 3.413 1.1 5.788 2.25 7.35 0 0-.75-5.85 4.5-10.8 0 0-.862-.892-3-1.892zm13.5 0c-2.138 1-3 1.892-3 1.892 5.25 4.95 4.5 10.8 4.5 10.8C21.4 17.788 22.5 15.413 22.5 12c0-1-1.6-3.342-3.75-3.342z"/>
</svg>
